<svg width="1000" height="400" xmlns="http://www.w3.org/2000/svg">
  <defs>
    <style>
      @keyframes float {
        0%, 100% { transform: translateY(0px); }
        50% { transform: translateY(-20px); }
      }
      @keyframes twinkle {
        0%, 100% { opacity: 1; }
        50% { opacity: 0.3; }
      }
      @keyframes slide {
        0% { transform: translateX(0px); }
        100% { transform: translateX(-50px); }
      }
      @keyframes bounce {
        0%, 100% { transform: translateY(0px); }
        50% { transform: translateY(-10px); }
      }
      @keyframes blink {
        0%, 90%, 100% { opacity: 1; }
        95% { opacity: 0; }
      }
      .cloud { animation: float 6s ease-in-out infinite; }
      .cloud2 { animation: float 8s ease-in-out infinite; }
      .cloud3 { animation: float 7s ease-in-out infinite; }
      .star { animation: twinkle 2s ease-in-out infinite; }
      .star2 { animation: twinkle 3s ease-in-out infinite; }
      .star3 { animation: twinkle 2.5s ease-in-out infinite; }
      .character { animation: bounce 1s ease-in-out infinite; }
      .letter { animation: float 4s ease-in-out infinite; }
      .robot-eyes { animation: blink 3s ease-in-out infinite; }
    </style>
  </defs>
  
  <!-- Background -->
  <rect width="1000" height="400" fill="#0d1117"/>
  
  <!-- Stars -->
  <g class="star">
    <polygon points="100,60 106,72 118,72 108,80 112,92 100,84 88,92 92,80 82,72 94,72" fill="#ffffff"/>
  </g>
  <g class="star2">
    <polygon points="300,100 306,112 318,112 308,120 312,132 300,124 288,132 292,120 282,112 294,112" fill="#ffffff"/>
  </g>
  <g class="star3">
    <polygon points="500,50 506,62 518,62 508,70 512,82 500,74 488,82 492,70 482,62 494,62" fill="#ffffff"/>
  </g>
  <g class="star">
    <polygon points="700,90 706,102 718,102 708,110 712,122 700,114 688,122 692,110 682,102 694,102" fill="#ffffff"/>
  </g>
  <g class="star2">
    <polygon points="850,55 856,67 868,67 858,75 862,87 850,79 838,87 842,75 832,67 844,67" fill="#ffffff"/>
  </g>
  <g class="star3">
    <polygon points="920,110 926,122 938,122 928,130 932,142 920,134 908,142 912,130 902,122 914,122" fill="#ffffff"/>
  </g>
  
  <!-- Crescent Moon in Center -->
  <g class="letter">
    <circle cx="500" cy="120" r="45" fill="#f4d03f"/>
    <circle cx="520" cy="112" r="38" fill="#0d1117"/>
  </g>
  
  <!-- Clouds (Pixel Art Style) -->
  <g class="cloud">
    <rect x="150" y="130" width="15" height="15" fill="#4a5568"/>
    <rect x="165" y="130" width="15" height="15" fill="#4a5568"/>
    <rect x="180" y="130" width="15" height="15" fill="#4a5568"/>
    <rect x="135" y="145" width="15" height="15" fill="#4a5568"/>
    <rect x="150" y="145" width="15" height="15" fill="#4a5568"/>
    <rect x="165" y="145" width="15" height="15" fill="#4a5568"/>
    <rect x="180" y="145" width="15" height="15" fill="#4a5568"/>
    <rect x="195" y="145" width="15" height="15" fill="#4a5568"/>
  </g>
  
  <g class="cloud2">
    <rect x="400" y="160" width="15" height="15" fill="#4a5568"/>
    <rect x="415" y="160" width="15" height="15" fill="#4a5568"/>
    <rect x="430" y="160" width="15" height="15" fill="#4a5568"/>
    <rect x="385" y="175" width="15" height="15" fill="#4a5568"/>
    <rect x="400" y="175" width="15" height="15" fill="#4a5568"/>
    <rect x="415" y="175" width="15" height="15" fill="#4a5568"/>
    <rect x="430" y="175" width="15" height="15" fill="#4a5568"/>
    <rect x="445" y="175" width="15" height="15" fill="#4a5568"/>
  </g>
  
  <g class="cloud3">
    <rect x="650" y="120" width="15" height="15" fill="#4a5568"/>
    <rect x="665" y="120" width="15" height="15" fill="#4a5568"/>
    <rect x="680" y="120" width="15" height="15" fill="#4a5568"/>
    <rect x="635" y="135" width="15" height="15" fill="#4a5568"/>
    <rect x="650" y="135" width="15" height="15" fill="#4a5568"/>
    <rect x="665" y="135" width="15" height="15" fill="#4a5568"/>
    <rect x="680" y="135" width="15" height="15" fill="#4a5568"/>
    <rect x="695" y="135" width="15" height="15" fill="#4a5568"/>
  </g>
  
  <!-- Large Pixel Letter "C" (Claude style) - Adjusted position -->
  <g class="letter" transform="translate(150, 200)">
    <rect x="10" y="0" width="12" height="12" fill="#ffffff"/>
    <rect x="22" y="0" width="12" height="12" fill="#ffffff"/>
    <rect x="34" y="0" width="12" height="12" fill="#ffffff"/>
    <rect x="46" y="0" width="12" height="12" fill="#ffffff"/>
    <rect x="0" y="12" width="12" height="12" fill="#ffffff"/>
    <rect x="0" y="24" width="12" height="12" fill="#ffffff"/>
    <rect x="0" y="36" width="12" height="12" fill="#ffffff"/>
    <rect x="0" y="48" width="12" height="12" fill="#ffffff"/>
    <rect x="0" y="60" width="12" height="12" fill="#ffffff"/>
    <rect x="10" y="72" width="12" height="12" fill="#ffffff"/>
    <rect x="22" y="72" width="12" height="12" fill="#ffffff"/>
    <rect x="34" y="72" width="12" height="12" fill="#ffffff"/>
    <rect x="46" y="72" width="12" height="12" fill="#ffffff"/>
  </g>
  
  <!-- Animated Robot Bot - Balanced position -->
  <g class="character" transform="translate(800, 210)">
    <!-- Antenna -->
    <rect x="20" y="-12" width="4" height="12" fill="#00f700"/>
    <circle cx="22" cy="-14" r="4" fill="#00f700"/>
    
    <!-- Head -->
    <rect x="10" y="0" width="10" height="10" fill="#4a90e2"/>
    <rect x="20" y="0" width="10" height="10" fill="#4a90e2"/>
    <rect x="30" y="0" width="10" height="10" fill="#4a90e2"/>
    
    <!-- Eyes (glowing) -->
    <g class="robot-eyes">
      <rect x="15" y="3" width="4" height="4" fill="#00f700"/>
      <rect x="31" y="3" width="4" height="4" fill="#00f700"/>
    </g>
    
    <!-- Body -->
    <rect x="10" y="10" width="10" height="10" fill="#5a9fd4"/>
    <rect x="20" y="10" width="10" height="10" fill="#5a9fd4"/>
    <rect x="30" y="10" width="10" height="10" fill="#5a9fd4"/>
    <rect x="10" y="20" width="10" height="10" fill="#5a9fd4"/>
    <rect x="20" y="20" width="10" height="10" fill="#5a9fd4"/>
    <rect x="30" y="20" width="10" height="10" fill="#5a9fd4"/>
    
    <!-- Control Panel -->
    <rect x="22" y="15" width="6" height="3" fill="#00f700"/>
    <rect x="22" y="22" width="3" height="3" fill="#ff0000"/>
    <rect x="27" y="22" width="3" height="3" fill="#00f700"/>
    
    <!-- Arms -->
    <rect x="0" y="12" width="10" height="8" fill="#4a90e2"/>
    <rect x="40" y="12" width="10" height="8" fill="#4a90e2"/>
    
    <!-- Legs/Wheels -->
    <rect x="12" y="30" width="8" height="10" fill="#2c3e50"/>
    <rect x="30" y="30" width="8" height="10" fill="#2c3e50"/>
    <circle cx="16" cy="42" r="5" fill="#1a252f"/>
    <circle cx="34" cy="42" r="5" fill="#1a252f"/>
  </g>
  
  <!-- Ground Line -->
  <line x1="0" y1="355" x2="1000" y2="355" stroke="#4a5568" stroke-width="2"/>
  
  <!-- Text - Centered -->
  <text x="500" y="310" font-family="'Courier New', monospace" font-size="36" font-weight="bold" fill="#00f700" text-anchor="middle">
    ABDUL AZEEM
  </text>
  <text x="500" y="345" font-family="'Courier New', monospace" font-size="20" fill="#ffffff" text-anchor="middle">
    Full-Stack Developer | Building the Future
  </text>
</svg>
