<svg width="1000" height="400" xmlns="http://www.w3.org/2000/svg">
  <defs>
    <style>
      @keyframes float {
        0%, 100% { transform: translateY(0px); }
        50% { transform: translateY(-20px); }
      }
      @keyframes twinkle {
        0%, 100% { opacity: 1; }
        50% { opacity: 0.3; }
      }
      @keyframes slide {
        0% { transform: translateX(0px); }
        100% { transform: translateX(-50px); }
      }
      @keyframes bounce {
        0%, 100% { transform: translateY(0px); }
        50% { transform: translateY(-10px); }
      }
      @keyframes blink {
        0%, 90%, 100% { opacity: 1; }
        95% { opacity: 0; }
      }
      .cloud { animation: float 6s ease-in-out infinite; }
      .cloud2 { animation: float 8s ease-in-out infinite; }
      .cloud3 { animation: float 7s ease-in-out infinite; }
      .star { animation: twinkle 2s ease-in-out infinite; }
      .star2 { animation: twinkle 3s ease-in-out infinite; }
      .star3 { animation: twinkle 2.5s ease-in-out infinite; }
      .character { animation: bounce 1s ease-in-out infinite; }
      .letter { animation: float 4s ease-in-out infinite; }
      .robot-eyes { animation: blink 3s ease-in-out infinite; }
    </style>
  </defs>
  
  <!-- Background -->
  <rect width="1000" height="400" fill="#0d1117"/>
  
  <!-- Stars -->
  <g class="star">
    <polygon points="100,60 106,72 118,72 108,80 112,92 100,84 88,92 92,80 82,72 94,72" fill="#ffffff"/>
  </g>
  <g class="star2">
    <polygon points="300,100 306,112 318,112 308,120 312,132 300,124 288,132 292,120 282,112 294,112" fill="#ffffff"/>
  </g>
  <g class="star3">
    <polygon points="500,50 506,62 518,62 508,70 512,82 500,74 488,82 492,70 482,62 494,62" fill="#ffffff"/>
  </g>
  <g class="star">
    <polygon points="700,90 706,102 718,102 708,110 712,122 700,114 688,122 692,110 682,102 694,102" fill="#ffffff"/>
  </g>
  <g class="star2">
    <polygon points="850,55 856,67 868,67 858,75 862,87 850,79 838,87 842,75 832,67 844,67" fill="#ffffff"/>
  </g>
  <g class="star3">
    <polygon points="920,110 926,122 938,122 928,130 932,142 920,134 908,142 912,130 902,122 914,122" fill="#ffffff"/>
  </g>
  
  <!-- Crescent Moon in Center -->
  <g class="letter">
    <circle cx="500" cy="120" r="45" fill="#f4d03f"/>
    <circle cx="520" cy="112" r="38" fill="#0d1117"/>
  </g>
  
  <!-- Clouds (Pixel Art Style) -->
  <!-- Left Cloud - Robot jumps over this -->
  <g class="cloud">
    <rect x="150" y="130" width="15" height="15" fill="#4a5568"/>
    <rect x="165" y="130" width="15" height="15" fill="#4a5568"/>
    <rect x="180" y="130" width="15" height="15" fill="#4a5568"/>
    <rect x="135" y="145" width="15" height="15" fill="#4a5568"/>
    <rect x="150" y="145" width="15" height="15" fill="#4a5568"/>
    <rect x="165" y="145" width="15" height="15" fill="#4a5568"/>
    <rect x="180" y="145" width="15" height="15" fill="#4a5568"/>
    <rect x="195" y="145" width="15" height="15" fill="#4a5568"/>
  </g>
  
  <!-- Middle Cloud -->
  <g class="cloud2">
    <rect x="400" y="160" width="15" height="15" fill="#4a5568"/>
    <rect x="415" y="160" width="15" height="15" fill="#4a5568"/>
    <rect x="430" y="160" width="15" height="15" fill="#4a5568"/>
    <rect x="385" y="175" width="15" height="15" fill="#4a5568"/>
    <rect x="400" y="175" width="15" height="15" fill="#4a5568"/>
    <rect x="415" y="175" width="15" height="15" fill="#4a5568"/>
    <rect x="430" y="175" width="15" height="15" fill="#4a5568"/>
    <rect x="445" y="175" width="15" height="15" fill="#4a5568"/>
  </g>
  
  <!-- Right Cloud -->
  <g class="cloud3">
    <rect x="650" y="120" width="15" height="15" fill="#4a5568"/>
    <rect x="665" y="120" width="15" height="15" fill="#4a5568"/>
    <rect x="680" y="120" width="15" height="15" fill="#4a5568"/>
    <rect x="635" y="135" width="15" height="15" fill="#4a5568"/>
    <rect x="650" y="135" width="15" height="15" fill="#4a5568"/>
    <rect x="665" y="135" width="15" height="15" fill="#4a5568"/>
    <rect x="680" y="135" width="15" height="15" fill="#4a5568"/>
    <rect x="695" y="135" width="15" height="15" fill="#4a5568"/>
  </g>
  
  <!-- Jarvis-Style AI Robot - Jumping Over Left Cloud -->
  <g class="character" transform="translate(120, 80)">
    <!-- Holographic Ring/Halo -->
    <circle cx="30" cy="-5" r="8" fill="none" stroke="#00f7ff" stroke-width="2" opacity="0.6"/>
    <circle cx="30" cy="-5" r="12" fill="none" stroke="#00f7ff" stroke-width="1" opacity="0.3"/>
    
    <!-- Antenna with Glow -->
    <rect x="28" y="-15" width="4" height="15" fill="#00d4ff"/>
    <circle cx="30" cy="-18" r="5" fill="#00f7ff">
      <animate attributeName="opacity" values="1;0.5;1" dur="2s" repeatCount="indefinite"/>
    </circle>
    <circle cx="30" cy="-18" r="8" fill="#00f7ff" opacity="0.3">
      <animate attributeName="r" values="8;12;8" dur="2s" repeatCount="indefinite"/>
      <animate attributeName="opacity" values="0.3;0.1;0.3" dur="2s" repeatCount="indefinite"/>
    </circle>
    
    <!-- Head - Sleek Design -->
    <rect x="15" y="0" width="12" height="12" fill="#1e3a5f"/>
    <rect x="27" y="0" width="6" height="12" fill="#2c5282"/>
    <rect x="33" y="0" width="12" height="12" fill="#1e3a5f"/>
    
    <!-- Visor/Eyes - Glowing Blue -->
    <g class="robot-eyes">
      <rect x="18" y="4" width="8" height="4" fill="#00f7ff">
        <animate attributeName="opacity" values="1;0.3;1" dur="3s" repeatCount="indefinite"/>
      </rect>
      <rect x="34" y="4" width="8" height="4" fill="#00f7ff">
        <animate attributeName="opacity" values="1;0.3;1" dur="3s" repeatCount="indefinite"/>
      </rect>
    </g>
    
    <!-- Body - Advanced Tech Look -->
    <rect x="12" y="12" width="12" height="14" fill="#2c5282"/>
    <rect x="24" y="12" width="12" height="14" fill="#3b6ba8"/>
    <rect x="36" y="12" width="12" height="14" fill="#2c5282"/>
    
    <!-- Arc Reactor / Core -->
    <circle cx="30" cy="19" r="5" fill="#00d4ff">
      <animate attributeName="opacity" values="0.8;1;0.8" dur="1.5s" repeatCount="indefinite"/>
    </circle>
    <circle cx="30" cy="19" r="3" fill="#00f7ff"/>
    
    <!-- Control Panel Lines -->
    <rect x="18" y="15" width="24" height="1" fill="#00f7ff" opacity="0.5"/>
    <rect x="18" y="23" width="24" height="1" fill="#00f7ff" opacity="0.5"/>
    
    <!-- Arms - Articulated -->
    <rect x="0" y="14" width="12" height="10" fill="#2c5282"/>
    <rect x="48" y="14" width="12" height="10" fill="#2c5282"/>
    <rect x="2" y="16" width="8" height="2" fill="#00d4ff" opacity="0.6"/>
    <rect x="50" y="16" width="8" height="2" fill="#00d4ff" opacity="0.6"/>
    
    <!-- Legs/Thrusters -->
    <rect x="15" y="26" width="10" height="14" fill="#1e3a5f"/>
    <rect x="35" y="26" width="10" height="14" fill="#1e3a5f"/>
    
    <!-- Thruster Glow -->
    <rect x="17" y="38" width="6" height="4" fill="#ff6b00">
      <animate attributeName="opacity" values="0.8;0.4;0.8" dur="0.5s" repeatCount="indefinite"/>
    </rect>
    <rect x="37" y="38" width="6" height="4" fill="#ff6b00">
      <animate attributeName="opacity" values="0.8;0.4;0.8" dur="0.5s" repeatCount="indefinite"/>
    </rect>
    
    <!-- Hover Effect Lines -->
    <line x1="20" y1="44" x2="20" y2="48" stroke="#ff6b00" stroke-width="2" opacity="0.6">
      <animate attributeName="y2" values="48;52;48" dur="0.5s" repeatCount="indefinite"/>
    </line>
    <line x1="40" y1="44" x2="40" y2="48" stroke="#ff6b00" stroke-width="2" opacity="0.6">
      <animate attributeName="y2" values="48;52;48" dur="0.5s" repeatCount="indefinite"/>
    </line>
  </g>
  
  <!-- Ground Line -->
  <line x1="0" y1="355" x2="1000" y2="355" stroke="#4a5568" stroke-width="2"/>
  
  <!-- Text - Centered -->
  <text x="500" y="310" font-family="'Courier New', monospace" font-size="36" font-weight="bold" fill="#00f700" text-anchor="middle">
    ABDUL AZEEM
  </text>
  <text x="500" y="345" font-family="'Courier New', monospace" font-size="20" fill="#ffffff" text-anchor="middle">
    Full-Stack Developer | Building the Future
  </text>
</svg>
