<svg width="1000" height="300" xmlns="http://www.w3.org/2000/svg">
  <defs>
    <style>
      @keyframes float {
        0%, 100% { transform: translateY(0px); }
        50% { transform: translateY(-20px); }
      }
      @keyframes twinkle {
        0%, 100% { opacity: 1; }
        50% { opacity: 0.3; }
      }
      @keyframes slide {
        0% { transform: translateX(0px); }
        100% { transform: translateX(-50px); }
      }
      @keyframes bounce {
        0%, 100% { transform: translateY(0px); }
        50% { transform: translateY(-10px); }
      }
      @keyframes blink {
        0%, 90%, 100% { opacity: 1; }
        95% { opacity: 0; }
      }
      .cloud { animation: float 6s ease-in-out infinite; }
      .cloud2 { animation: float 8s ease-in-out infinite; }
      .cloud3 { animation: float 7s ease-in-out infinite; }
      .star { animation: twinkle 2s ease-in-out infinite; }
      .star2 { animation: twinkle 3s ease-in-out infinite; }
      .star3 { animation: twinkle 2.5s ease-in-out infinite; }
      .character { animation: bounce 1s ease-in-out infinite; }
      .letter { animation: float 4s ease-in-out infinite; }
      .robot-eyes { animation: blink 3s ease-in-out infinite; }
    </style>
  </defs>
  
  <!-- Background -->
  <rect width="1000" height="300" fill="#0d1117"/>
  
  <!-- Stars -->
  <g class="star">
    <polygon points="100,50 105,60 115,60 107,67 110,77 100,70 90,77 93,67 85,60 95,60" fill="#ffffff"/>
  </g>
  <g class="star2">
    <polygon points="300,80 305,90 315,90 307,97 310,107 300,100 290,107 293,97 285,90 295,90" fill="#ffffff"/>
  </g>
  <g class="star3">
    <polygon points="500,40 505,50 515,50 507,57 510,67 500,60 490,67 493,57 485,50 495,50" fill="#ffffff"/>
  </g>
  <g class="star">
    <polygon points="700,70 705,80 715,80 707,87 710,97 700,90 690,97 693,87 685,80 695,80" fill="#ffffff"/>
  </g>
  <g class="star2">
    <polygon points="850,45 855,55 865,55 857,62 860,72 850,65 840,72 843,62 835,55 845,55" fill="#ffffff"/>
  </g>
  <g class="star3">
    <polygon points="920,90 925,100 935,100 927,107 930,117 920,110 910,117 913,107 905,100 915,100" fill="#ffffff"/>
  </g>
  
  <!-- Crescent Moon in Center -->
  <g class="letter">
    <circle cx="500" cy="80" r="35" fill="#f4d03f"/>
    <circle cx="515" cy="75" r="30" fill="#0d1117"/>
  </g>
  
  <!-- Clouds (Pixel Art Style) -->
  <g class="cloud">
    <rect x="150" y="100" width="15" height="15" fill="#4a5568"/>
    <rect x="165" y="100" width="15" height="15" fill="#4a5568"/>
    <rect x="180" y="100" width="15" height="15" fill="#4a5568"/>
    <rect x="135" y="115" width="15" height="15" fill="#4a5568"/>
    <rect x="150" y="115" width="15" height="15" fill="#4a5568"/>
    <rect x="165" y="115" width="15" height="15" fill="#4a5568"/>
    <rect x="180" y="115" width="15" height="15" fill="#4a5568"/>
    <rect x="195" y="115" width="15" height="15" fill="#4a5568"/>
  </g>
  
  <g class="cloud2">
    <rect x="400" y="120" width="15" height="15" fill="#4a5568"/>
    <rect x="415" y="120" width="15" height="15" fill="#4a5568"/>
    <rect x="430" y="120" width="15" height="15" fill="#4a5568"/>
    <rect x="385" y="135" width="15" height="15" fill="#4a5568"/>
    <rect x="400" y="135" width="15" height="15" fill="#4a5568"/>
    <rect x="415" y="135" width="15" height="15" fill="#4a5568"/>
    <rect x="430" y="135" width="15" height="15" fill="#4a5568"/>
    <rect x="445" y="135" width="15" height="15" fill="#4a5568"/>
  </g>
  
  <g class="cloud3">
    <rect x="650" y="90" width="15" height="15" fill="#4a5568"/>
    <rect x="665" y="90" width="15" height="15" fill="#4a5568"/>
    <rect x="680" y="90" width="15" height="15" fill="#4a5568"/>
    <rect x="635" y="105" width="15" height="15" fill="#4a5568"/>
    <rect x="650" y="105" width="15" height="15" fill="#4a5568"/>
    <rect x="665" y="105" width="15" height="15" fill="#4a5568"/>
    <rect x="680" y="105" width="15" height="15" fill="#4a5568"/>
    <rect x="695" y="105" width="15" height="15" fill="#4a5568"/>
  </g>
  
  <!-- Large Pixel Letter "C" (Claude style) - Adjusted position -->
  <g class="letter" transform="translate(150, 140)">
    <rect x="10" y="0" width="10" height="10" fill="#ffffff"/>
    <rect x="20" y="0" width="10" height="10" fill="#ffffff"/>
    <rect x="30" y="0" width="10" height="10" fill="#ffffff"/>
    <rect x="40" y="0" width="10" height="10" fill="#ffffff"/>
    <rect x="0" y="10" width="10" height="10" fill="#ffffff"/>
    <rect x="0" y="20" width="10" height="10" fill="#ffffff"/>
    <rect x="0" y="30" width="10" height="10" fill="#ffffff"/>
    <rect x="0" y="40" width="10" height="10" fill="#ffffff"/>
    <rect x="0" y="50" width="10" height="10" fill="#ffffff"/>
    <rect x="10" y="60" width="10" height="10" fill="#ffffff"/>
    <rect x="20" y="60" width="10" height="10" fill="#ffffff"/>
    <rect x="30" y="60" width="10" height="10" fill="#ffffff"/>
    <rect x="40" y="60" width="10" height="10" fill="#ffffff"/>
  </g>
  
  <!-- Pixel Character (Developer) - Centered and Fully Visible -->
  <g class="character" transform="translate(462, 140)">
    <!-- Head -->
    <rect x="0" y="0" width="10" height="10" fill="#f4a460"/>
    <rect x="10" y="0" width="10" height="10" fill="#f4a460"/>
    <rect x="20" y="0" width="10" height="10" fill="#f4a460"/>
    <!-- Eyes -->
    <rect x="3" y="3" width="3" height="3" fill="#000000"/>
    <rect x="24" y="3" width="3" height="3" fill="#000000"/>
    <!-- Smile -->
    <rect x="10" y="7" width="3" height="2" fill="#000000"/>
    <rect x="17" y="7" width="3" height="2" fill="#000000"/>
    <!-- Body -->
    <rect x="0" y="10" width="10" height="10" fill="#00f700"/>
    <rect x="10" y="10" width="10" height="10" fill="#00f700"/>
    <rect x="20" y="10" width="10" height="10" fill="#00f700"/>
    <rect x="0" y="20" width="10" height="10" fill="#00f700"/>
    <rect x="10" y="20" width="10" height="10" fill="#00f700"/>
    <rect x="20" y="20" width="10" height="10" fill="#00f700"/>
    <!-- Arms -->
    <rect x="-10" y="13" width="10" height="7" fill="#f4a460"/>
    <rect x="30" y="13" width="10" height="7" fill="#f4a460"/>
    <!-- Legs -->
    <rect x="5" y="30" width="8" height="10" fill="#2c5282"/>
    <rect x="17" y="30" width="8" height="10" fill="#2c5282"/>
    <rect x="5" y="40" width="8" height="10" fill="#2c5282"/>
    <rect x="17" y="40" width="8" height="10" fill="#2c5282"/>
  </g>
  
  <!-- Animated Robot Bot - Balanced position -->
  <g class="character" transform="translate(800, 150)">
    <!-- Antenna -->
    <rect x="17" y="-10" width="3" height="10" fill="#00f700"/>
    <circle cx="18.5" cy="-12" r="3" fill="#00f700"/>
    
    <!-- Head -->
    <rect x="8" y="0" width="8" height="8" fill="#4a90e2"/>
    <rect x="16" y="0" width="8" height="8" fill="#4a90e2"/>
    <rect x="24" y="0" width="8" height="8" fill="#4a90e2"/>
    
    <!-- Eyes (glowing) -->
    <g class="robot-eyes">
      <rect x="12" y="2" width="3" height="3" fill="#00f700"/>
      <rect x="25" y="2" width="3" height="3" fill="#00f700"/>
    </g>
    
    <!-- Body -->
    <rect x="8" y="8" width="8" height="8" fill="#5a9fd4"/>
    <rect x="16" y="8" width="8" height="8" fill="#5a9fd4"/>
    <rect x="24" y="8" width="8" height="8" fill="#5a9fd4"/>
    <rect x="8" y="16" width="8" height="8" fill="#5a9fd4"/>
    <rect x="16" y="16" width="8" height="8" fill="#5a9fd4"/>
    <rect x="24" y="16" width="8" height="8" fill="#5a9fd4"/>
    
    <!-- Control Panel -->
    <rect x="17" y="12" width="5" height="2" fill="#00f700"/>
    <rect x="17" y="18" width="2" height="2" fill="#ff0000"/>
    <rect x="21" y="18" width="2" height="2" fill="#00f700"/>
    
    <!-- Arms -->
    <rect x="0" y="10" width="8" height="6" fill="#4a90e2"/>
    <rect x="32" y="10" width="8" height="6" fill="#4a90e2"/>
    
    <!-- Legs/Wheels -->
    <rect x="10" y="24" width="6" height="8" fill="#2c3e50"/>
    <rect x="24" y="24" width="6" height="8" fill="#2c3e50"/>
    <circle cx="13" cy="34" r="4" fill="#1a252f"/>
    <circle cx="27" cy="34" r="4" fill="#1a252f"/>
  </g>
  
  <!-- Ground Line -->
  <line x1="0" y1="270" x2="1000" y2="270" stroke="#4a5568" stroke-width="2"/>
  
  <!-- Text - Centered -->
  <text x="500" y="235" font-family="'Courier New', monospace" font-size="32" font-weight="bold" fill="#00f700" text-anchor="middle">
    ABDUL AZEEM
  </text>
  <text x="500" y="260" font-family="'Courier New', monospace" font-size="18" fill="#ffffff" text-anchor="middle">
    Full-Stack Developer | Building the Future
  </text>
</svg>
